<svg width="86" height="21" viewBox="0 0 86 21" fill="none" xmlns="http://www.w3.org/2000/svg">
<path d="M28.9257 10.6318C28.9728 10.8212 28.9966 11.0578 28.9966 11.3416C28.9966 11.614 28.9728 11.8505 28.9257 12.0513H28.216C28.2631 12.2407 28.2869 12.4772 28.2869 12.761C28.2869 13.0334 28.2631 13.2696 28.216 13.4707H24.667C24.6195 13.2696 24.5961 13.033 24.5961 12.761C24.5961 12.4769 24.6195 12.2407 24.667 12.0513H23.9573C23.9098 11.8502 23.8864 11.6136 23.8864 11.3416C23.8864 11.0578 23.9098 10.8212 23.9573 10.6318H23.2476C23.2 10.4307 23.1766 10.1942 23.1766 9.92212C23.1766 9.63838 23.2 9.40181 23.2476 9.2124H23.9573C23.9098 9.0113 23.8864 8.77473 23.8864 8.50269C23.8864 8.21858 23.9098 7.98237 23.9573 7.79297H24.667C24.6195 7.59186 24.5961 7.35529 24.5961 7.08325C24.5961 6.79915 24.6195 6.56294 24.667 6.37354H28.216C28.2631 6.56294 28.2869 6.79951 28.2869 7.08325C28.2869 7.35566 28.2631 7.59186 28.216 7.79297H28.9257C28.9728 7.98237 28.9966 8.21895 28.9966 8.50269C28.9966 8.77509 28.9728 9.0113 28.9257 9.2124H27.5062C27.4587 9.0113 27.4353 8.77473 27.4353 8.50269C27.4353 8.21858 27.4587 7.98237 27.5062 7.79297H25.3767C25.4239 7.98237 25.4477 8.21895 25.4477 8.50269C25.4477 8.77509 25.4239 9.0113 25.3767 9.2124H24.667C24.7142 9.40181 24.7379 9.63838 24.7379 9.92212C24.7379 10.1945 24.7142 10.4311 24.667 10.6318H25.3767C25.4239 10.8212 25.4477 11.0578 25.4477 11.3416C25.4477 11.614 25.4239 11.8505 25.3767 12.0513H27.5062C27.4587 11.8502 27.4353 11.6136 27.4353 11.3416C27.4353 11.0578 27.4587 10.8212 27.5062 10.6318H28.9257Z" fill="url(#paint0_linear_270_873)"/>
<path d="M36.095 12.7615C36.095 13.0339 36.0712 13.2701 36.0241 13.4712H33.5399C33.4923 13.2701 33.4689 13.0335 33.4689 12.7615C33.4689 12.4774 33.4923 12.2412 33.5399 12.0518H32.8302C32.7826 11.8507 32.7592 11.6141 32.7592 11.342C32.7592 11.0583 32.7826 10.8217 32.8302 10.6323H31.7654C31.8126 10.8217 31.8363 11.0583 31.8363 11.342C31.8363 11.6144 31.8126 11.851 31.7654 12.0518C31.8126 12.2412 31.8363 12.4777 31.8363 12.7615C31.8363 13.0339 31.8126 13.2701 31.7654 13.4712H30.346C30.2984 13.2701 30.275 13.0335 30.275 12.7615C30.275 12.4774 30.2984 12.2412 30.346 12.0518C30.2984 11.8507 30.275 11.6141 30.275 11.342C30.275 11.0583 30.2984 10.8217 30.346 10.6323C30.2984 10.4312 30.275 10.1946 30.275 9.92261C30.275 9.63887 30.2984 9.40229 30.346 9.21289C30.2984 9.01179 30.275 8.77521 30.275 8.50317C30.275 8.21907 30.2984 7.98286 30.346 7.79346C30.2984 7.59235 30.275 7.35578 30.275 7.08374C30.275 6.79963 30.2984 6.56343 30.346 6.37402C30.2984 6.17292 30.275 5.93635 30.275 5.66431C30.275 5.3802 30.2984 5.14399 30.346 4.95459C30.2984 4.75348 30.275 4.51691 30.275 4.24487C30.275 3.96113 30.2984 3.72456 30.346 3.53516H31.7654C31.8126 3.72456 31.8363 3.96113 31.8363 4.24487C31.8363 4.51728 31.8126 4.75348 31.7654 4.95459C31.8126 5.14399 31.8363 5.38057 31.8363 5.66431C31.8363 5.93671 31.8126 6.17292 31.7654 6.37402C31.8126 6.56343 31.8363 6.8 31.8363 7.08374C31.8363 7.35615 31.8126 7.59235 31.7654 7.79346C31.8126 7.98286 31.8363 8.21943 31.8363 8.50317C31.8363 8.77558 31.8126 9.01179 31.7654 9.21289H32.8302C32.7826 9.01179 32.7592 8.77521 32.7592 8.50317C32.7592 8.21907 32.7826 7.98286 32.8302 7.79346H33.5399C33.4923 7.59235 33.4689 7.35578 33.4689 7.08374C33.4689 6.79963 33.4923 6.56343 33.5399 6.37402H35.6694C35.7166 6.56343 35.7403 6.8 35.7403 7.08374C35.7403 7.35615 35.7166 7.59235 35.6694 7.79346H34.25C34.2971 7.98286 34.3209 8.21943 34.3209 8.50317C34.3209 8.77558 34.2971 9.01179 34.25 9.21289H33.5402C33.5874 9.40229 33.6112 9.63887 33.6112 9.92261C33.6112 10.195 33.5874 10.4316 33.5402 10.6323H34.25C34.2971 10.8217 34.3209 11.0583 34.3209 11.342C34.3209 11.6144 34.2971 11.851 34.25 12.0518H36.0244C36.0709 12.2412 36.095 12.4777 36.095 12.7615Z" fill="url(#paint1_linear_270_873)"/>
<path d="M43.1217 10.6318C43.1688 10.8212 43.1926 11.0578 43.1926 11.3416C43.1926 11.614 43.1688 11.8505 43.1217 12.0513H42.412C42.4591 12.2407 42.4829 12.4772 42.4829 12.761C42.4829 13.0334 42.4591 13.2696 42.412 13.4707H38.863C38.8155 13.2696 38.7921 13.033 38.7921 12.761C38.7921 12.4769 38.8155 12.2407 38.863 12.0513H38.1529C38.1054 11.8502 38.082 11.6136 38.082 11.3416C38.082 11.0578 38.1054 10.8212 38.1529 10.6318H37.4432C37.3957 10.4307 37.3723 10.1942 37.3723 9.92212C37.3723 9.63838 37.3957 9.40181 37.4432 9.2124H38.1529C38.1054 9.0113 38.082 8.77473 38.082 8.50269C38.082 8.21858 38.1054 7.98237 38.1529 7.79297H38.8626C38.8151 7.59186 38.7917 7.35529 38.7917 7.08325C38.7917 6.79915 38.8151 6.56294 38.8626 6.37354H42.4116C42.4588 6.56294 42.4825 6.79951 42.4825 7.08325C42.4825 7.35566 42.4588 7.59186 42.4116 7.79297H43.1213C43.1685 7.98237 43.1922 8.21895 43.1922 8.50269C43.1922 8.77509 43.1685 9.0113 43.1213 9.2124H41.7019C41.6543 9.0113 41.6309 8.77473 41.6309 8.50269C41.6309 8.21858 41.6543 7.98237 41.7019 7.79297H39.5724C39.6195 7.98237 39.6433 8.21895 39.6433 8.50269C39.6433 8.77509 39.6195 9.0113 39.5724 9.2124H38.8626C38.9098 9.40181 38.9336 9.63838 38.9336 9.92212C38.9336 10.1945 38.9098 10.4311 38.8626 10.6318H39.5724C39.6195 10.8212 39.6433 11.0578 39.6433 11.3416C39.6433 11.614 39.6195 11.8505 39.5724 12.0513H41.7019C41.6543 11.8502 41.6309 11.6136 41.6309 11.3416C41.6309 11.0578 41.6543 10.8212 41.7019 10.6318H43.1217Z" fill="url(#paint2_linear_270_873)"/>
<path d="M45.9605 7.79272H46.4928C46.54 7.98213 46.5638 8.2187 46.5638 8.50244C46.5638 8.77485 46.54 9.01105 46.4928 9.21216H45.9605C46.0076 9.40156 46.0314 9.63813 46.0314 9.92187C46.0314 10.1943 46.0076 10.4309 45.9605 10.6316C46.0076 10.821 46.0314 11.0576 46.0314 11.3413C46.0314 11.6137 46.0076 11.8503 45.9605 12.051C46.0076 12.2404 46.0314 12.477 46.0314 12.7607C46.0314 13.0331 46.0076 13.2694 45.9605 13.4705H44.541C44.4935 13.2694 44.4701 13.0328 44.4701 12.7607C44.4701 12.4766 44.4935 12.2404 44.541 12.051C44.4935 11.8499 44.4701 11.6133 44.4701 11.3413C44.4701 11.0576 44.4935 10.821 44.541 10.6316C44.4935 10.4305 44.4701 10.1939 44.4701 9.92187C44.4701 9.63813 44.4935 9.40156 44.541 9.21216C44.4935 9.01105 44.4701 8.77448 44.4701 8.50244C44.4701 8.21833 44.4935 7.98213 44.541 7.79272C44.4935 7.59162 44.4701 7.35505 44.4701 7.08301C44.4701 6.7989 44.4935 6.56269 44.541 6.37329C44.4935 6.17219 44.4701 5.93561 44.4701 5.66357C44.4701 5.37947 44.4935 5.14326 44.541 4.95386C44.4935 4.75275 44.4701 4.51618 44.4701 4.24414C44.4701 3.9604 44.4935 3.72383 44.541 3.53442H45.9605C46.0076 3.72383 46.0314 3.9604 46.0314 4.24414C46.0314 4.51655 46.0076 4.75275 45.9605 4.95386C46.0076 5.14326 46.0314 5.37983 46.0314 5.66357C46.0314 5.93598 46.0076 6.17219 45.9605 6.37329C46.0076 6.56269 46.0314 6.79927 46.0314 7.08301C46.0314 7.35541 46.0076 7.59198 45.9605 7.79272ZM50.2904 9.92224C50.2904 10.1946 50.2667 10.4312 50.2195 10.632C50.2667 10.8214 50.2904 11.0579 50.2904 11.3417C50.2904 11.6141 50.2667 11.8506 50.2195 12.0514C50.2667 12.2408 50.2904 12.4774 50.2904 12.7611C50.2904 13.0335 50.2667 13.2697 50.2195 13.4708H48.8001C48.7525 13.2697 48.7291 13.0331 48.7291 12.7611C48.7291 12.477 48.7525 12.2408 48.8001 12.0514C48.7525 11.8503 48.7291 11.6137 48.7291 11.3417C48.7291 11.0579 48.7525 10.8214 48.8001 10.632C48.7525 10.4309 48.7291 10.1943 48.7291 9.92224C48.7291 9.6385 48.7525 9.40193 48.8001 9.21252C48.7525 9.01142 48.7291 8.77485 48.7291 8.50281C48.7291 8.2187 48.7525 7.98249 48.8001 7.79309H46.4932C46.4457 7.59198 46.4223 7.35541 46.4223 7.08337C46.4223 6.79927 46.4457 6.56306 46.4932 6.37366H49.3324C49.3796 6.56306 49.4034 6.79963 49.4034 7.08337C49.4034 7.35578 49.3796 7.59198 49.3324 7.79309H50.2195C50.2667 7.98249 50.2904 8.21907 50.2904 8.50281C50.2904 8.77521 50.2667 9.01142 50.2195 9.21252C50.2663 9.40193 50.2904 9.6385 50.2904 9.92224Z" fill="url(#paint3_linear_270_873)"/>
<path d="M57.3879 12.7615C57.3879 13.0339 57.3641 13.2701 57.317 13.4712H55.8975C55.85 13.2701 55.8266 13.0335 55.8266 12.7615C55.8266 12.4774 55.85 12.2412 55.8975 12.0518H55.1878C55.1403 11.8507 55.1169 11.6141 55.1169 11.342C55.1169 11.0583 55.1403 10.8217 55.1878 10.6323H53.0583C53.1055 10.8217 53.1292 11.0583 53.1292 11.342C53.1292 11.6144 53.1055 11.851 53.0583 12.0518H55.1878C55.235 12.2412 55.2587 12.4777 55.2587 12.7615C55.2587 13.0339 55.235 13.2701 55.1878 13.4712H52.3486C52.301 13.2701 52.2776 13.0335 52.2776 12.7615C52.2776 12.4774 52.301 12.2412 52.3486 12.0518H51.6388C51.5913 11.8507 51.5679 11.6141 51.5679 11.342C51.5679 11.0583 51.5913 10.8217 51.6388 10.6323H52.3486C52.301 10.4312 52.2776 10.1946 52.2776 9.92261C52.2776 9.63887 52.301 9.4023 52.3486 9.21289H55.1878C55.1403 9.01179 55.1169 8.77521 55.1169 8.50317C55.1169 8.21907 55.1403 7.98286 55.1878 7.79346H52.7036C52.6561 7.59235 52.6327 7.35578 52.6327 7.08374C52.6327 6.79963 52.6561 6.56343 52.7036 6.37402H55.8979C55.945 6.56343 55.9688 6.8 55.9688 7.08374C55.9688 7.35615 55.945 7.59235 55.8979 7.79346H56.6076C56.6548 7.98286 56.6785 8.21943 56.6785 8.50317C56.6785 8.77558 56.6548 9.01179 56.6076 9.21289C56.6548 9.4023 56.6785 9.63887 56.6785 9.92261C56.6785 10.195 56.6548 10.4316 56.6076 10.6323C56.6548 10.8217 56.6785 11.0583 56.6785 11.342C56.6785 11.6144 56.6548 11.851 56.6076 12.0518H57.3173C57.3641 12.2412 57.3879 12.4777 57.3879 12.7615Z" fill="url(#paint4_linear_270_873)"/>
<path d="M63.7763 12.7615C63.7763 13.0339 63.7526 13.2701 63.7054 13.4712H59.4467C59.3992 13.2701 59.3758 13.0335 59.3758 12.7615C59.3758 12.4774 59.3992 12.2412 59.4467 12.0518H60.8662C60.8186 11.8507 60.7952 11.6141 60.7952 11.342C60.7952 11.0583 60.8186 10.8217 60.8662 10.6323C60.8186 10.4312 60.7952 10.1946 60.7952 9.92261C60.7952 9.63887 60.8186 9.40229 60.8662 9.21289C60.8186 9.01179 60.7952 8.77521 60.7952 8.50317C60.7952 8.21907 60.8186 7.98286 60.8662 7.79346H59.8014C59.7539 7.59235 59.7305 7.35578 59.7305 7.08374C59.7305 6.79963 59.7542 6.56343 59.8014 6.37402H62.2856C62.3328 6.56343 62.3565 6.8 62.3565 7.08374C62.3565 7.35615 62.3328 7.59235 62.2856 7.79346C62.3328 7.98286 62.3565 8.21943 62.3565 8.50317C62.3565 8.77558 62.3328 9.01179 62.2856 9.21289C62.3328 9.40229 62.3565 9.63887 62.3565 9.92261C62.3565 10.195 62.3328 10.4316 62.2856 10.6323C62.3328 10.8217 62.3565 11.0583 62.3565 11.342C62.3565 11.6144 62.3328 11.851 62.2856 12.0518H63.7054C63.7522 12.2412 63.7763 12.4777 63.7763 12.7615ZM60.8662 4.95386C60.8186 4.75275 60.7952 4.51618 60.7952 4.24414C60.7952 3.9604 60.8186 3.72383 60.8662 3.53442H62.2856C62.3328 3.72383 62.3565 3.9604 62.3565 4.24414C62.3565 4.51655 62.3328 4.75275 62.2856 4.95386H60.8662Z" fill="url(#paint5_linear_270_873)"/>
<path d="M67.0764 7.79272H67.7861C67.8333 7.98213 67.857 8.2187 67.857 8.50244C67.857 8.77485 67.8333 9.01105 67.7861 9.21216H67.2537C67.3009 9.40156 67.3247 9.63813 67.3247 9.92188C67.3247 10.1943 67.3009 10.4309 67.2537 10.6316C67.3009 10.821 67.3247 11.0576 67.3247 11.3413C67.3247 11.6137 67.3009 11.8503 67.2537 12.051C67.3009 12.2404 67.3247 12.477 67.3247 12.7607C67.3247 13.0331 67.3009 13.2694 67.2537 13.4705H65.8339C65.7864 13.2694 65.763 13.0328 65.763 12.7607C65.763 12.4766 65.7864 12.2404 65.8339 12.051C65.7864 11.8499 65.763 11.6133 65.763 11.3413C65.763 11.0576 65.7864 10.821 65.8339 10.6316C65.7864 10.4305 65.763 10.1939 65.763 9.92188C65.763 9.63813 65.7864 9.40156 65.8339 9.21216C65.7864 9.01105 65.763 8.77448 65.763 8.50244C65.763 8.21834 65.7864 7.98213 65.8339 7.79272C65.7864 7.59162 65.763 7.35505 65.763 7.08301C65.763 6.7989 65.7864 6.5627 65.8339 6.37329H67.076C67.1232 6.5627 67.147 6.79927 67.147 7.08301C67.1473 7.35541 67.1236 7.59199 67.0764 7.79272ZM71.5837 9.92224C71.5837 10.1946 71.5599 10.4312 71.5128 10.632C71.5599 10.8214 71.5837 11.0579 71.5837 11.3417C71.5837 11.6141 71.5599 11.8507 71.5128 12.0514C71.5599 12.2408 71.5837 12.4774 71.5837 12.7611C71.5837 13.0335 71.5599 13.2697 71.5128 13.4708H70.0933C70.0458 13.2697 70.0224 13.0331 70.0224 12.7611C70.0224 12.477 70.0458 12.2408 70.0933 12.0514C70.0458 11.8503 70.0224 11.6137 70.0224 11.3417C70.0224 11.0579 70.0458 10.8214 70.0933 10.632C70.0458 10.4309 70.0224 10.1943 70.0224 9.92224C70.0224 9.6385 70.0458 9.40193 70.0933 9.21252C70.0458 9.01142 70.0224 8.77485 70.0224 8.50281C70.0224 8.2187 70.0458 7.98249 70.0933 7.79309H67.7865C67.7393 7.59199 67.7155 7.35541 67.7155 7.08337C67.7155 6.79927 67.7393 6.56306 67.7865 6.37366H70.6257C70.6729 6.56306 70.6966 6.79963 70.6966 7.08337C70.6966 7.35578 70.6729 7.59199 70.6257 7.79309H71.5131C71.5603 7.98249 71.5841 8.21907 71.5841 8.50281C71.5841 8.77521 71.5603 9.01142 71.5131 9.21252C71.5599 9.40193 71.5837 9.6385 71.5837 9.92224Z" fill="url(#paint6_linear_270_873)"/>
<path d="M78.6111 9.2124C78.6583 9.40181 78.6821 9.63838 78.6821 9.92212C78.6821 10.1945 78.6583 10.4311 78.6111 10.6318H74.8845C74.9317 10.8212 74.9554 11.0578 74.9554 11.3416C74.9554 11.614 74.9317 11.8505 74.8845 12.0513H77.9011C77.9482 12.2407 77.972 12.4772 77.972 12.761C77.972 13.0334 77.9482 13.2696 77.9011 13.4707H74.3521C74.3046 13.2696 74.2812 13.033 74.2812 12.761C74.2812 12.4769 74.3046 12.2407 74.3521 12.0513H73.4647C73.4172 11.8502 73.3938 11.6136 73.3938 11.3416C73.3938 11.0578 73.4172 10.8212 73.4647 10.6318H72.9323C72.8848 10.4307 72.8614 10.1942 72.8614 9.92212C72.8614 9.63838 72.8848 9.40181 72.9323 9.2124H73.4647C73.4172 9.0113 73.3938 8.77473 73.3938 8.50269C73.3938 8.21858 73.4172 7.98237 73.4647 7.79297H74.3521C74.3046 7.59186 74.2812 7.35529 74.2812 7.08325C74.2812 6.79915 74.3046 6.56294 74.3521 6.37354H77.9011C77.9482 6.56294 77.972 6.79951 77.972 7.08325C77.972 7.35566 77.9482 7.59186 77.9011 7.79297H78.6108C78.6579 7.98237 78.6817 8.21895 78.6817 8.50269C78.6821 8.77473 78.6583 9.0113 78.6111 9.2124ZM77.1204 8.50269C77.1204 8.21858 77.1438 7.98237 77.1913 7.79297H74.8845C74.9317 7.98237 74.9554 8.21895 74.9554 8.50269C74.9554 8.77509 74.9317 9.0113 74.8845 9.2124H77.1913C77.1442 9.0113 77.1204 8.77473 77.1204 8.50269Z" fill="url(#paint7_linear_270_873)"/>
<path d="M83.4023 7.79272H81.6278C81.675 7.98213 81.6988 8.2187 81.6988 8.50244C81.6988 8.77485 81.675 9.01105 81.6278 9.21216H81.0954C81.1426 9.40156 81.1664 9.63813 81.1664 9.92188C81.1664 10.1943 81.1426 10.4309 81.0954 10.6316H81.6278C81.675 10.821 81.6988 11.0576 81.6988 11.3413C81.6988 11.6137 81.675 11.8503 81.6278 12.051H83.4023C83.4495 12.2404 83.4732 12.477 83.4732 12.7607C83.4732 13.0331 83.4495 13.2694 83.4023 13.4705H81.4505C81.403 13.2694 81.3796 13.0328 81.3796 12.7607C81.3796 12.4766 81.403 12.2404 81.4505 12.051H80.5631C80.5155 11.8499 80.4921 11.6133 80.4921 11.3413C80.4921 11.0576 80.5155 10.821 80.5631 10.6316H80.0307C79.9832 10.4305 79.9598 10.1939 79.9598 9.92188C79.9598 9.63813 79.9832 9.40156 80.0307 9.21216H80.5631C80.5155 9.01105 80.4921 8.77448 80.4921 8.50244C80.4921 8.21834 80.5155 7.98213 80.5631 7.79272H81.4505C81.403 7.59162 81.3796 7.35505 81.3796 7.08301C81.3796 6.7989 81.403 6.5627 81.4505 6.37329H83.4023C83.4495 6.5627 83.4732 6.79927 83.4732 7.08301C83.4732 7.35541 83.4495 7.59199 83.4023 7.79272ZM85.7801 5.66357C85.7801 5.93598 85.7563 6.17219 85.7092 6.37329C85.7563 6.5627 85.7801 6.79927 85.7801 7.08301C85.7801 7.35541 85.7563 7.59162 85.7092 7.79272C85.7563 7.98213 85.7801 8.2187 85.7801 8.50244C85.7801 8.77485 85.7563 9.01105 85.7092 9.21216C85.7563 9.40156 85.7801 9.63813 85.7801 9.92188C85.7801 10.1943 85.7563 10.4309 85.7092 10.6316C85.7563 10.821 85.7801 11.0576 85.7801 11.3413C85.7801 11.6137 85.7563 11.8503 85.7092 12.051C85.7563 12.2404 85.7801 12.477 85.7801 12.7607C85.7801 13.0331 85.7563 13.2694 85.7092 13.4705H84.2897C84.2422 13.2694 84.2188 13.0328 84.2188 12.7607C84.2188 12.4766 84.2422 12.2404 84.2897 12.051H83.7573C83.7098 11.8499 83.6864 11.6133 83.6864 11.3413C83.6864 11.0576 83.7098 10.821 83.7573 10.6316H84.2897C84.2422 10.4305 84.2188 10.1939 84.2188 9.92188C84.2188 9.63813 84.2422 9.40156 84.2897 9.21216H83.7573C83.7098 9.01105 83.6864 8.77448 83.6864 8.50244C83.6864 8.21834 83.7098 7.98213 83.7573 7.79272H84.2897C84.2422 7.59162 84.2188 7.35505 84.2188 7.08301C84.2188 6.7989 84.2422 6.5627 84.2897 6.37329C84.2422 6.17219 84.2188 5.93561 84.2188 5.66357C84.2188 5.37947 84.2422 5.14326 84.2897 4.95386C84.2422 4.75275 84.2188 4.51618 84.2188 4.24414C84.2188 3.9604 84.2422 3.72383 84.2897 3.53442H85.7092C85.7563 3.72383 85.7801 3.9604 85.7801 4.24414C85.7801 4.51655 85.7563 4.75275 85.7092 4.95386C85.7563 5.1429 85.7801 5.37947 85.7801 5.66357Z" fill="url(#paint8_linear_270_873)"/>
<path d="M1.88099 11.3338C1.88099 11.6025 1.85759 11.8358 1.81079 12.0343H1.11058C1.15701 12.2212 1.18078 12.4545 1.18078 12.7349C1.18078 13.0037 1.15738 13.237 1.11058 13.4355H0.410002C0.363199 13.2373 0.339798 13.0037 0.339798 12.7349C0.339798 12.4548 0.363199 12.2216 0.410002 12.0343C0.363199 11.8358 0.339798 11.6025 0.339798 11.3338C0.339798 11.0537 0.363199 10.8204 0.410002 10.6332C0.363199 10.435 0.339798 10.2014 0.339798 9.93262C0.339798 9.65254 0.363199 9.41926 0.410002 9.23205C0.363199 9.03387 0.339798 8.80022 0.339798 8.53147C0.339798 8.25139 0.363199 8.01811 0.410002 7.83089C0.363199 7.63235 0.339798 7.39907 0.339798 7.13032C0.339798 6.85024 0.363199 6.61695 0.410002 6.42974C0.363199 6.23156 0.339798 5.99792 0.339798 5.72917C0.339798 5.44908 0.363199 5.2158 0.410002 5.02859C0.363199 4.83041 0.339798 4.59677 0.339798 4.32802C0.339798 4.04793 0.363199 3.81465 0.410002 3.62744H1.81079C1.85722 3.81429 1.88099 4.04757 1.88099 4.32802C1.88099 4.59677 1.85759 4.83005 1.81079 5.02859C1.85722 5.21544 1.88099 5.44872 1.88099 5.72917C1.88099 5.99792 1.85759 6.2312 1.81079 6.42974C1.85722 6.61659 1.88099 6.84987 1.88099 7.13032C1.88099 7.39907 1.85759 7.63235 1.81079 7.83089H2.51136C2.5578 8.01774 2.58157 8.25102 2.58157 8.53147C2.58157 8.80022 2.55817 9.0335 2.51136 9.23205H1.81115C1.85759 9.41889 1.88136 9.65217 1.88136 9.93262C1.88136 10.2014 1.85796 10.4347 1.81115 10.6332C1.85759 10.82 1.88099 11.0533 1.88099 11.3338ZM1.81115 12.034H3.91252C3.95895 12.2208 3.98272 12.4541 3.98272 12.7346C3.98272 13.0033 3.95932 13.2366 3.91252 13.4351H1.81115C1.76435 13.237 1.74095 13.0033 1.74095 12.7346C1.74095 12.4545 1.76435 12.2208 1.81115 12.034ZM6.01351 10.6332H5.31294C5.35937 10.82 5.38314 11.0533 5.38314 11.3338C5.38314 11.6025 5.35974 11.8358 5.31294 12.0343H3.91215C3.86535 11.8358 3.84195 11.6025 3.84195 11.3338C3.84195 11.0537 3.86535 10.8204 3.91215 10.6332H4.61273C4.56592 10.435 4.54252 10.2014 4.54252 9.93262C4.54252 9.65254 4.56592 9.41926 4.61273 9.23205H3.91215C3.86535 9.03387 3.84195 8.80022 3.84195 8.53147C3.84195 8.25139 3.86535 8.01811 3.91215 7.83089H2.51136C2.46456 7.63235 2.44116 7.39907 2.44116 7.13032C2.44116 6.85024 2.46456 6.61695 2.51136 6.42974H4.61273C4.65916 6.61659 4.68293 6.84987 4.68293 7.13032C4.68293 7.39907 4.65953 7.63235 4.61273 7.83089H5.3133C5.35974 8.01774 5.3835 8.25102 5.3835 8.53147C5.3835 8.80022 5.3601 9.0335 5.3133 9.23205H6.01388C6.06031 9.41889 6.08408 9.65217 6.08408 9.93262C6.08335 10.2014 6.05995 10.435 6.01351 10.6332Z" fill="url(#paint9_linear_270_873)"/>
<path d="M12.387 12.7344C12.387 13.0032 12.3636 13.2365 12.3168 13.435H8.11443C8.06763 13.2368 8.04423 13.0032 8.04423 12.7344C8.04423 12.4544 8.06763 12.2211 8.11443 12.0339H9.51522C9.46841 11.8353 9.44501 11.602 9.44501 11.3333C9.44501 11.0532 9.46841 10.8199 9.51522 10.6327C9.46841 10.4345 9.44501 10.2009 9.44501 9.93213C9.44501 9.65205 9.46841 9.41877 9.51522 9.23156C9.46841 9.03338 9.44501 8.79973 9.44501 8.53098C9.44501 8.2509 9.46841 8.01762 9.51522 7.83041C9.46841 7.63186 9.44501 7.39858 9.44501 7.12983C9.44501 6.84975 9.46841 6.61647 9.51522 6.42926C9.46841 6.23108 9.44501 5.99743 9.44501 5.72868C9.44501 5.4486 9.46841 5.21531 9.51522 5.0281H8.46472C8.41792 4.82993 8.39452 4.59628 8.39452 4.32753C8.39452 4.04744 8.41792 3.81416 8.46472 3.62695H10.916C10.9624 3.8138 10.9862 4.04708 10.9862 4.32753C10.9862 4.59628 10.9628 4.82956 10.916 5.0281C10.9624 5.21495 10.9862 5.44823 10.9862 5.72868C10.9862 5.99743 10.9628 6.23071 10.916 6.42926C10.9624 6.6161 10.9862 6.84938 10.9862 7.12983C10.9862 7.39858 10.9628 7.63186 10.916 7.83041C10.9624 8.01725 10.9862 8.25053 10.9862 8.53098C10.9862 8.79973 10.9628 9.03301 10.916 9.23156C10.9624 9.4184 10.9862 9.65168 10.9862 9.93213C10.9862 10.2009 10.9628 10.4342 10.916 10.6327C10.9624 10.8196 10.9862 11.0528 10.9862 11.3333C10.9862 11.602 10.9628 11.8353 10.916 12.0339H12.3168C12.3636 12.2207 12.387 12.4544 12.387 12.7344Z" fill="url(#paint10_linear_270_873)"/>
<path d="M62.959 16.5523C62.959 16.4499 62.9912 16.3655 63.0562 16.2989C63.121 16.2327 63.2047 16.1995 63.3074 16.1995H63.7462V16.5253H63.434C63.3524 16.5253 63.3118 16.5706 63.3118 16.6609V18.1089C63.3118 18.2116 63.2793 18.2961 63.2146 18.3623C63.1495 18.4288 63.0643 18.4617 62.959 18.4617H62.9045V18.5162H62.959C63.0647 18.5162 63.1499 18.5495 63.2146 18.6156C63.2793 18.6822 63.3118 18.7667 63.3118 18.869V20.317C63.3118 20.4077 63.3524 20.4526 63.434 20.4526H63.7462V20.7784H63.3074C63.2047 20.7784 63.1213 20.7452 63.0562 20.679C62.9912 20.6124 62.959 20.528 62.959 20.4256V18.8643C62.959 18.7769 62.9184 18.733 62.8369 18.733H62.6061V18.2441H62.8369C62.9184 18.2441 62.959 18.2003 62.959 18.1129V16.5523Z" fill="#3DFFE0"/>
<path d="M67.6874 19.747H68.4746V18.1542H67.7686V17.8284H68.8275V19.747H69.5606V20.0728H67.6874V19.747ZM68.3298 17.1586C68.3298 17.0712 68.3606 16.9966 68.4227 16.9344C68.4845 16.8726 68.5591 16.8416 68.6469 16.8416C68.7342 16.8416 68.8088 16.8726 68.871 16.9344C68.9328 16.9962 68.9639 17.0708 68.9639 17.1586C68.9639 17.246 68.9328 17.3209 68.871 17.3827C68.8092 17.4445 68.7346 17.4756 68.6469 17.4756C68.5595 17.4756 68.4845 17.4445 68.4227 17.3827C68.3609 17.3209 68.3298 17.2463 68.3298 17.1586Z" fill="#3DFFE0"/>
<path d="M70.7561 20.0727H70.4033V17.8284H70.7561V18.2087H70.8103C70.9488 17.9132 71.1905 17.7651 71.5342 17.7651C71.7935 17.7651 72.0004 17.8459 72.1544 18.0072C72.3083 18.1684 72.3851 18.4109 72.3851 18.7334V20.0727H72.0322V18.8058C72.0322 18.5703 71.9796 18.394 71.8739 18.2763C71.7682 18.1586 71.6249 18.0997 71.4439 18.0997C71.2296 18.0997 71.0615 18.1728 70.9393 18.3191C70.8172 18.4653 70.7561 18.6606 70.7561 18.9052V20.0727Z" fill="#3DFFE0"/>
<path d="M74.9092 19.7289H74.8547C74.8185 19.7984 74.7724 19.8587 74.7168 19.9099C74.6609 19.9611 74.6006 20.0035 74.5358 20.0364C74.4708 20.0697 74.4024 20.0945 74.33 20.111C74.2576 20.1275 74.1881 20.1359 74.1219 20.1359C73.9709 20.1359 73.8309 20.1103 73.7011 20.0591C73.5713 20.0079 73.4576 19.934 73.3596 19.8375C73.2616 19.741 73.1844 19.621 73.1288 19.4777C73.0729 19.3344 73.0451 19.1709 73.0451 18.9866V18.9142C73.0451 18.7333 73.0736 18.5713 73.131 18.4279C73.1884 18.2846 73.2652 18.1639 73.3618 18.066C73.4583 17.968 73.5713 17.8934 73.7011 17.8418C73.8309 17.7906 73.968 17.765 74.1128 17.765C74.2667 17.765 74.4108 17.799 74.545 17.8667C74.6792 17.9347 74.7826 18.0393 74.855 18.1811H74.9095V16.905H75.2624V20.0726H74.9095V19.7289H74.9092ZM74.1581 19.8013C74.2638 19.8013 74.3618 19.7816 74.4521 19.7424C74.5428 19.7033 74.6218 19.6474 74.6898 19.575C74.7578 19.5026 74.8112 19.4159 74.8503 19.3146C74.8894 19.2137 74.9092 19.1011 74.9092 18.9775V18.923C74.9092 18.8024 74.8894 18.6916 74.8503 18.5903C74.8112 18.4894 74.7574 18.4023 74.6898 18.3299C74.6218 18.2576 74.5421 18.2009 74.4499 18.1603C74.3578 18.1197 74.2605 18.0992 74.1581 18.0992C74.0525 18.0992 73.9537 18.119 73.8616 18.1581C73.7694 18.1972 73.6897 18.2532 73.6217 18.3256C73.5537 18.398 73.5011 18.4839 73.4634 18.5833C73.4257 18.6828 73.4067 18.7932 73.4067 18.9135V18.9859C73.4067 19.1124 73.4254 19.2258 73.4634 19.3252C73.5011 19.4247 73.5537 19.5099 73.6217 19.5808C73.6897 19.6518 73.7687 19.7059 73.8594 19.7439C73.9501 19.7823 74.0495 19.8013 74.1581 19.8013Z" fill="#3DFFE0"/>
<path d="M75.995 19.747H76.7823V18.1542H76.0762V17.8284H77.1351V19.747H77.8682V20.0728H75.995V19.747ZM76.6378 17.1586C76.6378 17.0712 76.6686 16.9966 76.7307 16.9344C76.7925 16.8726 76.8671 16.8416 76.9549 16.8416C77.0422 16.8416 77.1168 16.8726 77.179 16.9344C77.2408 16.9962 77.2719 17.0708 77.2719 17.1586C77.2719 17.246 77.2408 17.3209 77.179 17.3827C77.1172 17.4445 77.0426 17.4756 76.9549 17.4756C76.8675 17.4756 76.7925 17.4445 76.7307 17.3827C76.6686 17.3209 76.6378 17.2463 76.6378 17.1586Z" fill="#3DFFE0"/>
<path d="M80.339 19.6928H80.2845C80.2121 19.8438 80.1119 19.9553 79.9836 20.0277C79.8552 20.1001 79.7203 20.1363 79.5785 20.1363C79.4307 20.1363 79.2932 20.1115 79.1667 20.0618C79.0402 20.012 78.9291 19.9382 78.834 19.8402C78.7389 19.7422 78.6643 19.6222 78.6099 19.4804C78.5554 19.3385 78.5283 19.1743 78.5283 18.9871V18.9147C78.5283 18.7308 78.5554 18.5677 78.6099 18.4259C78.6643 18.284 78.7389 18.1641 78.834 18.0661C78.9291 17.9681 79.0399 17.8935 79.1667 17.8419C79.2936 17.7907 79.4278 17.7651 79.5693 17.7651C79.7232 17.7651 79.8626 17.7991 79.988 17.8668C80.113 17.9348 80.2121 18.0394 80.2845 18.1812H80.339V17.8284H80.6918V19.6113C80.6918 19.702 80.7324 19.7469 80.814 19.7469H80.927V20.0727H80.6871C80.5843 20.0727 80.5006 20.0394 80.4359 19.9733C80.3708 19.9071 80.3386 19.8226 80.3386 19.7199V19.6928H80.339ZM79.615 19.8014C79.7207 19.8014 79.8179 19.7817 79.9068 19.7425C79.9957 19.7034 80.0721 19.6475 80.1353 19.5751C80.1986 19.5027 80.2483 19.416 80.2845 19.3147C80.3207 19.2138 80.339 19.1012 80.339 18.9776V18.9231C80.339 18.8025 80.3207 18.6917 80.2845 18.5904C80.2483 18.4895 80.1979 18.4025 80.1328 18.3301C80.0677 18.2577 79.9909 18.201 79.9021 18.1604C79.8132 18.1198 79.7174 18.0993 79.6147 18.0993C79.509 18.0993 79.4125 18.1191 79.3251 18.1582C79.2377 18.1973 79.1613 18.2525 79.0965 18.3235C79.0314 18.3944 78.981 18.4803 78.9448 18.5813C78.9086 18.6825 78.8903 18.7933 78.8903 18.914V18.9864C78.8903 19.2427 78.9572 19.4427 79.0918 19.586C79.2263 19.7297 79.4007 19.8014 79.615 19.8014Z" fill="#3DFFE0"/>
<path d="M85.3669 18.1136C85.3669 18.201 85.4075 18.2449 85.4891 18.2449H85.7198V18.7337H85.4891C85.4075 18.7337 85.3669 18.7776 85.3669 18.865V20.4263C85.3669 20.5287 85.3344 20.6132 85.2697 20.6797C85.2046 20.7459 85.1209 20.7792 85.0185 20.7792H84.5797V20.4534H84.892C84.9735 20.4534 85.0141 20.408 85.0141 20.3177V18.8698C85.0141 18.7674 85.0466 18.6829 85.1114 18.6164C85.1761 18.5502 85.2613 18.5169 85.3669 18.5169H85.4214V18.4624H85.3669C85.2613 18.4624 85.1761 18.4292 85.1114 18.363C85.0466 18.2968 85.0141 18.212 85.0141 18.1096V16.6616C85.0141 16.5713 84.9735 16.526 84.892 16.526H84.5797V16.2002H85.0185C85.1209 16.2002 85.2046 16.2335 85.2697 16.2997C85.3344 16.3662 85.3669 16.4507 85.3669 16.553V18.1136Z" fill="#3DFFE0"/>
<path d="M66.2766 17.8223C66.2766 17.9096 66.2455 17.9846 66.1837 18.0464C66.1219 18.1082 66.0473 18.1393 65.9596 18.1393C65.8722 18.1393 65.7972 18.1082 65.7355 18.0464C65.6737 17.9846 65.6426 17.91 65.6426 17.8223V17.3787C65.6426 17.2763 65.6751 17.1919 65.7398 17.1253C65.8046 17.0592 65.8883 17.0259 65.991 17.0259H66.2218V17.2701H66.009C65.9274 17.2701 65.8868 17.3155 65.8868 17.4058V17.5188C65.908 17.5096 65.9336 17.5052 65.9636 17.5052C66.0481 17.5052 66.1212 17.5363 66.183 17.5981C66.2455 17.6599 66.2766 17.7349 66.2766 17.8223Z" fill="#3DFFE0"/>
<path d="M82.2042 17.3563C82.2042 17.2689 82.2352 17.194 82.297 17.1322C82.3588 17.0704 82.4334 17.0393 82.5212 17.0393C82.6086 17.0393 82.6835 17.0704 82.7453 17.1322C82.8071 17.194 82.8382 17.2686 82.8382 17.3563V17.7998C82.8382 17.9022 82.8056 17.9867 82.7409 18.0532C82.6762 18.1194 82.5925 18.1527 82.4897 18.1527H82.259V17.9084H82.4718C82.5534 17.9084 82.5939 17.8631 82.5939 17.7728V17.6598C82.5727 17.6689 82.5471 17.6733 82.5172 17.6733C82.4327 17.6733 82.3596 17.6423 82.2978 17.5805C82.2352 17.5183 82.2042 17.4437 82.2042 17.3563Z" fill="#3DFFE0"/>
<path d="M21.6855 1.06992C21.5834 0.892212 21.3516 0.845775 21.1904 0.969729L19.7537 2.0769C19.7124 2.10871 19.6788 2.14967 19.6554 2.19647C19.304 2.90399 18.9994 3.60018 18.7921 4.14682C18.5047 4.90443 18.3263 5.66095 18.2477 6.37469L16.882 6.36299C16.8165 5.64779 16.6505 4.88835 16.3752 4.12598C15.8183 2.58076 14.5067 0.943403 13.5173 0.0859652C13.4511 0.0285589 13.3513 0.0654891 13.3356 0.152147C13.1045 1.46408 13.6471 3.39176 14.204 4.93588C14.4146 5.51945 14.6724 6.05768 14.962 6.54252C15.1203 6.80688 15.2157 7.10452 15.2505 7.41166L15.2516 7.41971L15.253 7.44274C15.3441 8.25338 14.9675 9.04719 14.261 9.5313L14.6687 11.4915L16.4962 13.4101L18.6107 13.4126L20.3761 11.5003L20.8163 9.58871C20.1187 9.09253 19.7552 8.29213 19.8598 7.48333L19.862 7.46029V7.45225C19.9026 7.14584 20.0031 6.84967 20.1658 6.58823C20.4635 6.1085 20.7304 5.57503 20.9498 4.99475C21.0887 4.62947 21.2277 4.17826 21.3564 3.6872C21.2832 3.64369 21.2094 3.59433 21.1344 3.54168C20.8302 4.45652 20.2945 5.9542 19.9541 6.27889C19.949 6.28401 19.9443 6.28877 19.9395 6.29352C19.4934 6.71109 18.7822 6.2884 18.9095 5.68582C19.04 5.07044 19.251 4.44738 19.466 3.90513C19.681 3.36214 19.8993 2.9018 20.0437 2.61184L20.0975 2.50507C20.5201 2.88936 20.9615 3.25574 21.3867 3.56727C21.5414 3.68099 21.6946 3.78739 21.8423 3.88428C22.2972 4.18302 22.7122 4.39582 23.0358 4.46822C23.016 3.66197 22.4017 2.31786 21.6855 1.06992ZM15.966 6.40102C15.668 6.51144 15.3836 6.33886 15.2143 6.06609C14.1086 4.28649 14.0223 2.36832 14.148 1.78073C14.9576 2.4484 16.192 4.42142 16.3284 5.64523C16.3646 5.96956 16.2673 6.2895 15.966 6.40102ZM17.4348 11.8009C17.4348 11.8462 17.3818 11.8696 17.3493 11.8393L16.7419 11.2725C16.7335 11.2648 16.728 11.2546 16.7258 11.2433L16.581 10.3972C16.5745 10.3588 16.6103 10.3266 16.6469 10.3383L17.4005 10.5811C17.4217 10.588 17.4363 10.6081 17.4359 10.6308L17.4348 11.8009ZM17.5511 10.4403L16.7551 10.1854C16.6944 10.1661 16.7021 10.0761 16.7653 10.0681L17.5621 9.96569C17.5672 9.96496 17.5719 9.96496 17.5771 9.96606L18.3599 10.0699C18.4224 10.0783 18.4305 10.1679 18.3701 10.1876L17.5866 10.4403C17.5752 10.444 17.5628 10.444 17.5511 10.4403ZM18.3979 11.2454C18.3961 11.2568 18.3903 11.267 18.3822 11.2747L17.78 11.8389C17.7471 11.8696 17.6941 11.8462 17.6944 11.8005L17.6959 10.6312C17.6959 10.6085 17.7105 10.5884 17.7314 10.5818L18.4766 10.3412C18.5131 10.3295 18.5489 10.361 18.5424 10.3997L18.3979 11.2454Z" fill="url(#paint11_linear_270_873)"/>
<defs>
<linearGradient id="paint0_linear_270_873" x1="26.0863" y1="13.4712" x2="26.0863" y2="6.37317" gradientUnits="userSpaceOnUse">
<stop offset="0.5453" stop-color="#16D52E"/>
<stop offset="0.5497" stop-color="#55FF6B"/>
</linearGradient>
<linearGradient id="paint1_linear_270_873" x1="33.1847" y1="13.4713" x2="33.1847" y2="3.53409" gradientUnits="userSpaceOnUse">
<stop offset="0.3844" stop-color="#16D52E"/>
<stop offset="0.3939" stop-color="#55FF6B"/>
</linearGradient>
<linearGradient id="paint2_linear_270_873" x1="40.2823" y1="13.4712" x2="40.2823" y2="6.37317" gradientUnits="userSpaceOnUse">
<stop offset="0.5453" stop-color="#16D52E"/>
<stop offset="0.5497" stop-color="#55FF6B"/>
</linearGradient>
<linearGradient id="paint3_linear_270_873" x1="47.3801" y1="13.4713" x2="47.3801" y2="3.53409" gradientUnits="userSpaceOnUse">
<stop offset="0.3894" stop-color="#16D52E"/>
<stop offset="0.3939" stop-color="#55FF6B"/>
</linearGradient>
<linearGradient id="paint4_linear_270_873" x1="54.4776" y1="13.4713" x2="54.4776" y2="6.37329" gradientUnits="userSpaceOnUse">
<stop offset="0.5453" stop-color="#16D52E"/>
<stop offset="0.5497" stop-color="#55FF6B"/>
</linearGradient>
<linearGradient id="paint5_linear_270_873" x1="61.5758" y1="13.4713" x2="61.5758" y2="3.53409" gradientUnits="userSpaceOnUse">
<stop offset="0.3933" stop-color="#16D52E"/>
<stop offset="0.3978" stop-color="#55FF6B"/>
</linearGradient>
<linearGradient id="paint6_linear_270_873" x1="68.6735" y1="13.4713" x2="68.6735" y2="6.37329" gradientUnits="userSpaceOnUse">
<stop offset="0.5453" stop-color="#16D52E"/>
<stop offset="0.5497" stop-color="#55FF6B"/>
</linearGradient>
<linearGradient id="paint7_linear_270_873" x1="75.7719" y1="13.4712" x2="75.7719" y2="6.37317" gradientUnits="userSpaceOnUse">
<stop offset="0.5453" stop-color="#16D52E"/>
<stop offset="0.5497" stop-color="#55FF6B"/>
</linearGradient>
<linearGradient id="paint8_linear_270_873" x1="82.8699" y1="13.4713" x2="82.8699" y2="3.53409" gradientUnits="userSpaceOnUse">
<stop offset="0.3888" stop-color="#16D52E"/>
<stop offset="0.3894" stop-color="#55FF6B"/>
</linearGradient>
<linearGradient id="paint9_linear_270_873" x1="3.2118" y1="13.4349" x2="3.2118" y2="3.62915" gradientUnits="userSpaceOnUse">
<stop offset="0.3933" stop-color="#16D52E"/>
<stop offset="0.3978" stop-color="#55FF6B"/>
</linearGradient>
<linearGradient id="paint10_linear_270_873" x1="10.2157" y1="13.4348" x2="10.2157" y2="3.62902" gradientUnits="userSpaceOnUse">
<stop offset="0.3933" stop-color="#16D52E"/>
<stop offset="0.3978" stop-color="#55FF6B"/>
</linearGradient>
<linearGradient id="paint11_linear_270_873" x1="16.2362" y1="13.3639" x2="18.5241" y2="0.388949" gradientUnits="userSpaceOnUse">
<stop offset="0.00893773" stop-color="#A780F4"/>
<stop offset="0.8268" stop-color="#EE7EC2"/>
</linearGradient>
</defs>
</svg>
