<svg width="133" height="29" viewBox="0 0 133 29" fill="none" xmlns="http://www.w3.org/2000/svg">
<path d="M34.6457 6.07522H41.7308C43.4484 6.02884 45.153 6.38287 46.7096 7.10928C48.0567 7.75844 49.1726 8.80421 49.9074 10.1061C50.6774 11.5338 51.0602 13.138 51.0182 14.7594C51.0615 16.3889 50.6821 18.002 49.9173 19.4414C49.188 20.7445 48.0747 21.7911 46.7289 22.4382C45.1654 23.1652 43.4544 23.5192 41.7308 23.4723H34.6457V6.07522ZM41.4149 19.834C42.1052 19.8884 42.7995 19.8048 43.457 19.5877C44.1146 19.3707 44.7225 19.0248 45.2447 18.5701C45.7013 18.049 46.0486 17.4414 46.2655 16.7835C46.4824 16.1256 46.5652 15.4307 46.5086 14.7402C46.5682 14.0496 46.4867 13.354 46.2693 12.6957C46.052 12.0374 45.7034 11.43 45.2447 10.9104C44.72 10.4605 44.1116 10.1189 43.4544 9.90523C42.7969 9.6916 42.1038 9.61019 41.4149 9.66571H39.1553V19.834H41.4149ZM64.6428 18.2541H57.1364C57.1973 18.9108 57.5055 19.5199 57.9981 19.9584C58.561 20.3397 59.235 20.5217 59.9132 20.4754C61.1414 20.4595 62.3363 20.0723 63.3408 19.3648L64.4515 22.2372C63.7828 22.7115 63.0381 23.0677 62.2492 23.2904C61.4171 23.5418 60.5528 23.6709 59.6834 23.6733C58.4303 23.7049 57.1878 23.4426 56.0543 22.9074C55.0666 22.4258 54.246 21.6586 53.699 20.7052C53.1305 19.6782 52.8463 18.5181 52.8758 17.3445C52.8553 16.2052 53.1219 15.0791 53.6514 14.07C54.1474 13.1288 54.9011 12.3483 55.8245 11.82C56.7844 11.2762 57.8716 10.9986 58.9747 11.0157C59.7426 10.9868 60.5074 11.1232 61.2173 11.4155C61.9277 11.7079 62.5669 12.1495 63.0917 12.7104C64.1677 13.977 64.7161 15.6085 64.6239 17.2679L64.6428 18.2541ZM57.0884 16.1381H60.9185C60.8225 14.6895 60.1841 13.9647 59.0035 13.9647C57.8228 13.9647 57.1844 14.6895 57.0884 16.1381ZM74.6772 11.3508H78.976L73.557 23.4819H69.9279L64.5952 11.3508H69.191L71.8623 18.1871L74.6772 11.3508ZM86.674 11.3508H89.5463V14.587H86.674V23.501H82.2411V14.5679H80.01V11.3508H82.2411C82.2312 10.6308 82.3744 9.91689 82.6616 9.25658C82.9489 8.59624 83.3737 8.00461 83.907 7.52098C85.2553 6.54938 86.8793 6.03591 88.541 6.05606L90.0445 5.96033L90.2932 9.14868L89.1348 9.19652C88.4711 9.17316 87.8126 9.31806 87.2197 9.61782C87.0251 9.7722 86.8729 9.97361 86.7773 10.2031C86.6817 10.4326 86.6465 10.6826 86.674 10.9296V11.3508ZM93.4241 22.9074C92.4419 22.4169 91.6256 21.6476 91.0786 20.6957C90.5097 19.6686 90.2254 18.5085 90.255 17.335C90.2241 16.1643 90.5084 15.0068 91.0786 13.9838C91.626 13.0425 92.4385 12.2833 93.4146 11.8008C94.5241 11.2961 95.7288 11.0348 96.9477 11.0348C98.1665 11.0348 99.3712 11.2961 100.481 11.8008C101.457 12.2833 102.269 13.0425 102.817 13.9838C103.387 15.0068 103.671 16.1643 103.64 17.335C103.67 18.5085 103.386 19.6686 102.817 20.6957C102.259 21.6525 101.429 22.4221 100.433 22.9074C99.3288 23.4192 98.1262 23.6844 96.9095 23.6844C95.6924 23.6844 94.4899 23.4192 93.3859 22.9074H93.4241ZM99.2936 17.335C99.2936 15.2927 98.5112 14.2711 96.9477 14.2711C95.3842 14.2711 94.6018 15.2927 94.6018 17.335C94.6018 19.3772 95.3842 20.3988 96.9477 20.3988C98.5112 20.3988 99.2936 19.3772 99.2936 17.335ZM105.642 23.4819V6.07522H110.008V23.4819H105.642ZM112.478 5.26135H117.074V9.23485H112.478V5.26135ZM112.573 23.4532V11.3508H116.968V23.4819L112.573 23.4532ZM122.129 22.9074C121.146 22.4169 120.331 21.6476 119.783 20.6957C119.215 19.6686 118.93 18.5085 118.96 17.335C118.929 16.1643 119.213 15.0068 119.783 13.9838C120.331 13.0425 121.143 12.2833 122.119 11.8008C123.229 11.2961 124.433 11.0348 125.652 11.0348C126.871 11.0348 128.076 11.2961 129.185 11.8008C130.162 12.2833 130.974 13.0425 131.522 13.9838C132.092 15.0068 132.376 16.1643 132.345 17.335C132.374 18.5085 132.09 19.6686 131.522 20.6957C130.968 21.6496 130.146 22.4191 129.157 22.9074C128.053 23.4192 126.85 23.6844 125.633 23.6844C124.416 23.6844 123.214 23.4192 122.11 22.9074H122.129ZM127.998 17.335C127.998 15.2927 127.216 14.2711 125.652 14.2711C124.089 14.2711 123.307 15.2927 123.307 17.335C123.307 19.3772 124.089 20.3988 125.652 20.3988C127.216 20.3988 127.995 19.3772 127.989 17.335H127.998Z" fill="#273339"/>
<mask id="mask0_270_801" style="mask-type:luminance" maskUnits="userSpaceOnUse" x="0" y="0" width="28" height="29">
<path d="M27.9263 0.718628H0.488615V28.1563H27.9263V0.718628Z" fill="white"/>
</mask>
<g mask="url(#mask0_270_801)">
<path d="M26.8141 15.8263C26.8405 18.8733 25.725 21.8197 23.6873 24.0852C21.6496 26.3507 18.8374 27.7711 15.8047 28.0666C15.8047 28.0666 7.90088 28.2685 5.28551 28.0666C4.8066 28.0091 4.35145 27.8257 3.96637 27.5352C3.58129 27.2448 3.28003 26.8575 3.09324 26.4127C3.46116 26.5748 3.85527 26.6692 4.25669 26.6915C5.11244 26.7685 6.57397 26.8069 8.61242 26.8069C11.6028 26.8069 14.8623 26.7204 14.8912 26.7204H14.9489C18.2071 26.4437 21.237 24.9339 23.42 22.4993C25.2923 20.4359 26.4782 17.8423 26.8141 15.0763V15.8263Z" fill="#3770FF"/>
<path d="M25.8522 13.1438C25.8757 16.1922 24.7564 19.1387 22.7149 21.4027C20.6735 23.6666 17.858 25.0836 14.8235 25.3745C14.8235 25.3745 6.91969 25.5764 4.30435 25.3745C3.59801 25.2649 2.95571 24.902 2.49742 24.3534C2.03914 23.8049 1.7962 23.1083 1.81399 22.3937V3.76893C1.80517 3.05067 2.05941 2.354 2.52877 1.81025C2.99814 1.2665 3.6502 0.913229 4.36204 0.81704C6.987 0.595888 14.8811 0.81704 14.8811 0.81704C17.922 1.12275 20.7372 2.55935 22.7691 4.84229C24.8009 7.12523 25.9013 10.088 25.8522 13.1438Z" fill="#3770FF"/>
</g>
</svg>
