<svg width="512" height="512" viewBox="0 0 512 512" fill="none" xmlns="http://www.w3.org/2000/svg">
<path d="M176.988 255.912L226.121 227.358C237.622 220.692 241.623 205.849 234.997 194.151C228.371 182.579 213.619 178.554 201.992 185.22L117.229 234.402L176.988 255.912Z" fill="#EA4335"/>
<path d="M213.994 329.119C222.37 329.119 230.496 324.716 234.872 316.918C241.498 305.345 237.622 290.503 225.995 283.71L141.233 234.528C129.731 227.862 114.979 231.761 108.228 243.459C101.602 255.031 105.477 269.874 117.104 276.666L201.867 325.848C205.742 327.987 209.868 329.119 213.994 329.119Z" fill="#4285F4"/>
<path d="M298.256 329.119C302.382 329.119 306.508 328.112 310.258 325.848L395.021 276.666L336.012 254.905L286.255 283.836C274.753 290.502 270.752 305.345 277.378 317.043C281.754 324.716 289.88 329.119 298.256 329.119Z" fill="#FBBC04"/>
<path d="M382.894 279.811C391.27 279.811 399.397 275.408 403.772 267.61C410.398 256.037 406.523 241.195 394.896 234.402L310.258 185.346C298.756 178.679 284.004 182.579 277.253 194.277C270.627 205.849 274.503 220.692 286.13 227.484L370.892 276.54C374.643 278.805 378.893 279.811 382.894 279.811Z" fill="#0F9D58"/>
</svg>
