<svg width="108" height="98" viewBox="0 0 108 98" fill="none" xmlns="http://www.w3.org/2000/svg">
<g id="Group 335">
<rect id="Rectangle 199" width="107.454" height="97.6853" rx="19.5371" fill="#FDF6F8"/>
<g id="Group 329">
<path id="Vector" d="M54.3028 44.2362V42.0734H45.3252V55.0093H54.3028V52.8465H47.4676V49.6227H53.9764V47.4599H47.4676V44.2362H54.3028Z" fill="#E31937"/>
<path id="Vector_2" d="M60.9751 55.0093V42.0734H63.1175V52.8465H69.3406V55.0093H60.9751Z" fill="#E31937"/>
<path id="Vector_3" d="M71.0952 55.0093V42.0734H73.258V52.8465H79.4607V55.0093H71.0952Z" fill="#E31937"/>
<path id="Vector_4" d="M58.7302 42.0734H56.5674V54.9889H58.7302V42.0734Z" fill="#E31937"/>
<path id="Vector_5" d="M18.4129 45.3582C17.5763 46.1947 17.0662 47.3373 17.0662 48.6024C17.0662 49.8674 17.5763 51.01 18.4129 51.8466C19.2494 52.6831 20.392 53.1932 21.6571 53.1932C22.9221 53.1932 24.0647 52.6831 24.9012 51.8466C25.7378 51.01 26.2479 49.8674 26.2479 48.6024C26.2479 47.3373 25.7378 46.1947 24.9012 45.3582C24.0647 44.5216 22.9221 44.0115 21.6571 44.0115C20.392 44.0115 19.2494 44.5216 18.4129 45.3582ZM14.9238 48.6024C14.9238 44.8889 17.9436 41.8691 21.6571 41.8691C25.3705 41.8691 28.3903 44.8889 28.3903 48.6024C28.3903 52.3158 25.3705 55.3356 21.6571 55.3356C17.9436 55.3356 14.9238 52.3158 14.9238 48.6024Z" fill="#E31937"/>
<path id="Vector_6" d="M35.0418 47.4599V44.2362H39.3878C40.2856 44.2362 40.9997 44.9503 40.9997 45.8481C40.9997 46.7458 40.2856 47.4599 39.3878 47.4599H35.0418ZM40.4692 49.4595C42.0199 48.9902 43.1625 47.562 43.1625 45.8481C43.1625 43.7669 41.469 42.0734 39.3878 42.0734H32.8994V54.9889H35.0622V49.6227H38.0616L41.3057 55.0093H43.8154L40.4692 49.4595Z" fill="#E31937"/>
<path id="Vector_7" d="M31.3695 43.4606C31.3695 44.338 30.6554 45.0521 29.778 45.0521C28.9007 45.0521 28.1865 44.338 28.1865 43.4606C28.1865 42.5833 28.9007 41.8691 29.778 41.8691C30.6554 41.8691 31.3695 42.5833 31.3695 43.4606Z" fill="#E31937"/>
<path id="Vector_8" d="M89.0713 42.0734H86.4596L83.1338 46.8682L79.8284 42.0734H77.1963L82.0524 49.1126V55.0093H84.2152V49.1126L89.0713 42.0734Z" fill="#E31937"/>
<g id="Group">
<path id="Vector_9" d="M91.6213 44.7257C90.8867 44.7257 90.2746 44.134 90.2746 43.3791C90.2746 42.6446 90.8663 42.0324 91.6213 42.0324C92.3558 42.0324 92.9679 42.6242 92.9679 43.3791C92.9475 44.1136 92.3558 44.7257 91.6213 44.7257ZM91.6213 41.7876C90.7439 41.7876 90.0298 42.5017 90.0298 43.3791C90.0298 44.2564 90.7439 44.9706 91.6213 44.9706C92.4986 44.9706 93.2128 44.2564 93.2128 43.3791C93.2128 42.5017 92.4986 41.7876 91.6213 41.7876Z" fill="#E31937"/>
<path id="Vector_10" d="M91.2335 42.828H91.866C91.9884 42.828 92.0701 42.9096 92.0701 43.032C92.0701 43.1545 91.9884 43.2361 91.866 43.2361H91.2335V42.828ZM92.3353 43.032C92.3353 42.7668 92.1313 42.5627 91.866 42.5627H90.9683V44.195H91.2335V43.5013H91.6824L92.0088 44.1746H92.3149L91.9884 43.4809C92.1925 43.4401 92.3353 43.2565 92.3353 43.032Z" fill="#E31937"/>
</g>
</g>
</g>
</svg>
