<svg width="48" height="47" viewBox="0 0 48 47" fill="none" xmlns="http://www.w3.org/2000/svg">
<mask id="mask0_270_835" style="mask-type:luminance" maskUnits="userSpaceOnUse" x="0" y="0" width="48" height="47">
<path d="M23.8809 46.6306C36.7502 46.6306 47.1828 36.198 47.1828 23.3287C47.1828 10.4595 36.7502 0.0268555 23.8809 0.0268555C11.0116 0.0268555 0.579033 10.4595 0.579033 23.3287C0.579033 36.198 11.0116 46.6306 23.8809 46.6306Z" fill="white"/>
</mask>
<g mask="url(#mask0_270_835)">
<path d="M49.3883 -2.17957H-1.62827V48.837H49.3883V-2.17957Z" fill="url(#paint0_linear_270_835)"/>
</g>
<path d="M30.6197 28.3571L37.2123 24.5503C37.5615 24.3486 37.7774 23.9737 37.7774 23.5703V15.9578C37.7774 15.5553 37.5605 15.1795 37.2123 14.9778L30.6197 11.1711C30.2705 10.9694 29.8376 10.9703 29.4884 11.1711L22.8959 14.9778C22.5467 15.1795 22.3307 15.5553 22.3307 15.9578V29.5625L17.7076 32.2313L13.0845 29.5625V24.224L17.7076 21.5552L20.757 23.3153V19.7341L18.2728 18.3003C18.1015 18.2013 17.9055 18.149 17.7067 18.149C17.5078 18.149 17.3118 18.2013 17.1415 18.3003L10.5489 22.107C10.1998 22.3087 9.98378 22.6836 9.98378 23.087V30.6995C9.98378 31.102 10.2007 31.4778 10.5489 31.6795L17.1415 35.4862C17.4897 35.687 17.9236 35.687 18.2728 35.4862L24.8654 31.6805C25.2145 31.4788 25.4305 31.1029 25.4305 30.7005V17.0957L25.5142 17.0482L30.0536 14.4269L34.6767 17.0957V22.4343L30.0536 25.1031L27.009 23.3448V26.9261L29.4884 28.358C29.8376 28.5588 30.2705 28.5588 30.6197 28.358V28.3571Z" fill="#282828"/>
<defs>
<linearGradient id="paint0_linear_270_835" x1="-10.9515" y1="2.01346" x2="41.7149" y2="34.2428" gradientUnits="userSpaceOnUse">
<stop stop-color="#A229C5"/>
<stop offset="1" stop-color="#7B3FE4"/>
</linearGradient>
</defs>
</svg>
