<svg width="108" height="98" viewBox="0 0 108 98" fill="none" xmlns="http://www.w3.org/2000/svg">
<g id="Group 337">
<rect id="Rectangle 195" width="107.454" height="97.6853" rx="19.5371" fill="#FDF6F8"/>
<path id="Vector" d="M38.6172 54.7736C41.822 54.7736 45.0159 56.1329 46.4857 58.5863L43.0045 61.4044C41.8221 60.3324 40.3743 59.5588 38.584 59.5588C36.639 59.5588 35.6997 60.3545 35.6997 61.0839C35.6997 62.0674 36.6059 62.6311 38.584 63.1173L40.3633 63.5483C45.3695 64.7529 47.2151 67.0737 47.2151 69.9801C47.2151 73.8039 43.8002 76.4672 38.0867 76.4672C34.8929 76.4672 30.9587 75.13 29.4336 72.3783L32.9147 69.5602C34.3182 70.9858 35.9207 71.8478 38.0536 71.8478C39.9102 71.8478 41.38 71.2289 41.38 70.1238C41.38 69.2287 40.7059 68.8861 38.8714 68.433L37.0037 67.9688C32.0196 66.7311 30.0967 63.924 30.0967 61.2165C30.1077 57.7353 33.2021 54.7736 38.6172 54.7736ZM79.0979 55.3704V60.244H72.9977V75.8373H67.3615V60.244H61.2612V55.3704H79.0979ZM34.705 21.233V33.3563C34.705 35.7765 36.0864 37.1468 38.3299 37.1468C40.5733 37.1468 41.9215 35.7765 41.9215 33.3563V21.233H47.5356V33.3342C47.5356 38.9593 44.1649 42.352 38.363 42.352C32.329 42.352 29.1021 38.8156 29.1021 33.3342V21.233H34.705ZM74.158 27.3002V35.246H66.2122V27.3002H74.158Z" fill="#282828"/>
</g>
</svg>
