<svg width="1763" height="224" viewBox="0 0 1763 224" fill="none" xmlns="http://www.w3.org/2000/svg">
    <path d="M19 215.501C69 104.501 251.266 -47.0231 638 89.0012C1145.5 267.502 1246 -10.4987 1474 24.0013C1656.4 51.6013 1734 83.5012 1750 96.0012" stroke="#FDF6F8" stroke-width="41"/>
    <path d="M19 215.501C69 104.501 251.266 -47.0231 638 89.0012C1145.5 267.502 1246 -10.4987 1474 24.0013C1656.4 51.6013 1734 83.5012 1750 96.0012" stroke="#FDF6F8" stroke-width="41"/>
    <path d="M19 215.501C69 104.501 251.266 -47.0231 638 89.0012C1145.5 267.502 1246 -10.4987 1474 24.0013C1656.4 51.6013 1734 83.5012 1750 96.0012" stroke="#ECF016" stroke-width="27"/>
</svg>
