<svg width="166" height="38" viewBox="0 0 166 38" fill="none" xmlns="http://www.w3.org/2000/svg">
<path d="M8.24314 3.88483L8.81327 0.0132588H23.8355L23.2521 3.97764L8.24314 3.88483Z" fill="#282828"/>
<path d="M23.9416 4.82621L24.7106 0.0132588L39.693 0L36.3386 20.9489H21.3694L22.1782 15.778H0.5L2.14409 4.82621H23.9416Z" fill="#282828"/>
<path d="M34.4658 33.6904L33.8957 37.5619H18.8735L19.4569 33.5976L34.4658 33.6904Z" fill="#282828"/>
<path d="M18.7674 32.749L17.9984 37.5619L3.01595 37.5752L6.37042 16.6263H21.3396L20.5308 21.7972H42.209L40.5649 32.749H18.7674Z" fill="#282828"/>
<path d="M50.3053 10.3143H46.7795V30.8312H50.3053V10.3143Z" fill="#282828"/>
<path d="M52.8558 21.9793V18.7911H62.9079V10.3143H66.4712V30.8312H62.9079V21.9793H52.8558Z" fill="#282828"/>
<path d="M80.2279 10.9551L68.5341 30.8312H72.585L81.6994 15.1904L86.0503 22.6919H79.974L78.3612 25.58H87.7757L90.7388 30.6811H95.0147L83.3287 10.9506C82.6302 9.77138 80.9228 9.77388 80.2279 10.9551Z" fill="#282828"/>
<path d="M102.648 10.2768H117.444V13.9151H103.041C101.695 13.9151 100.603 15.0066 100.603 16.3531C100.603 17.6996 101.695 18.7911 103.041 18.7911H112.512C115.795 18.7911 118.457 21.4528 118.457 24.7361C118.457 28.0195 115.795 30.6811 112.512 30.6811H97.1902V27.1179H112.493C113.943 27.1179 115.119 25.9424 115.119 24.4923C115.119 23.0423 113.943 21.8668 112.493 21.8668H102.648C99.4471 21.8668 96.8526 19.2723 96.8526 16.0718C96.8526 12.8713 99.4471 10.2768 102.648 10.2768Z" fill="#282828"/>
<path d="M156.528 21.1166H154.84V25.505C154.84 26.9965 156.049 28.2056 157.54 28.2056H162.041V30.7936H163.767V28.2056H165.154V26.5928H163.767V21.1166H162.041V26.5928H157.728C157.065 26.5928 156.528 26.0554 156.528 25.3925V21.1166Z" fill="#282828"/>
<path d="M124.984 10.1643H121.458V30.6811H124.984V10.1643Z" fill="#282828"/>
<path d="M127.534 21.8293V18.6411H137.586V10.1643H141.149V30.6811H137.586V21.8293H127.534Z" fill="#282828"/>
<path d="M153.319 19.7478V18.0664H145.667V16.8089C145.667 15.988 146.143 15.564 147.043 15.564H150.539C152.366 15.564 153.478 14.4122 153.478 12.8239C153.478 11.2746 152.432 10.1228 150.525 10.1228H144.157V11.8042H150.525C151.28 11.8042 151.743 12.2542 151.743 12.9826C151.743 13.7109 151.254 14.1474 150.525 14.1474H147.043C145.111 14.1474 144.078 15.061 144.078 16.9281V19.7478H153.319Z" fill="#282828"/>
<path fill-rule="evenodd" clip-rule="evenodd" d="M164.933 14.9553C164.933 17.762 162.748 19.9861 159.942 19.9861C157.121 19.9861 154.95 17.762 154.95 14.9553C154.95 12.1351 157.121 10.1228 159.942 10.1228C162.748 10.1228 164.933 12.1351 164.933 14.9553ZM159.929 18.3047C162.047 18.3047 163.238 16.8881 163.238 15.0344C163.238 13.1813 162.034 11.8173 159.942 11.8173C157.823 11.8173 156.632 13.1813 156.632 15.0344C156.632 16.8881 157.823 18.3047 159.929 18.3047Z" fill="#282828"/>
<path d="M153.319 30.8306V29.1492H145.667V27.8912C145.667 27.0708 146.143 26.6468 147.043 26.6468H150.539C152.366 26.6468 153.478 25.495 153.478 23.9062C153.478 22.3574 152.432 21.2056 150.525 21.2056H144.157V22.887H150.525C151.28 22.887 151.743 23.337 151.743 24.0653C151.743 24.7937 151.254 25.2302 150.525 25.2302H147.043C145.111 25.2302 144.078 26.1437 144.078 28.0104V30.8306H153.319Z" fill="#282828"/>
</svg>
