<svg width="1512" height="948" viewBox="0 0 1512 948" fill="none" xmlns="http://www.w3.org/2000/svg">
<mask id="mask0_165_1296" style="mask-type:alpha" maskUnits="userSpaceOnUse" x="0" y="0" width="1512" height="948">
<rect width="1512" height="948" fill="#D9D9D9"/>
</mask>
<g mask="url(#mask0_165_1296)">
<path d="M296.996 812.538C170.582 820.007 46.3263 735.049 0 691.636V-115H1555.9C1548.44 108.288 1555.9 713.109 1555.9 713.109C1555.9 839 1369.48 813.472 1265.09 784.53C1138.5 756.219 1047.29 664.375 834.825 691.636C569.242 725.713 455.013 803.202 296.996 812.538Z" fill="#051A25"/>
<path d="M-27 638C23 749 205.266 900.524 592 764.5C1099.5 585.999 1200 864 1428 829.5C1610.4 801.9 1688 770 1704 757.5" stroke="#FDF6F8" stroke-width="41"/>
<path d="M-27 638C23 749 205.266 900.524 592 764.5C1099.5 585.999 1200 864 1428 829.5C1610.4 801.9 1688 770 1704 757.5" stroke="#ECF016" stroke-width="27"/>
</g>
</svg>
