<svg width="1512" height="948" viewBox="0 0 1512 948" fill="none" xmlns="http://www.w3.org/2000/svg">
<mask id="mask0_165_1296" style="mask-type:alpha" maskUnits="userSpaceOnUse" x="0" y="0" width="1512" height="948">
<rect width="1512" height="948" fill="#D9D9D9"/>
</mask>
<g mask="url(#mask0_165_1296)">
<path d="M296.996 814.961C170.582 821.523 46.3263 746.877 0 708.733V0H1555.9C1548.44 196.187 1555.9 727.6 1555.9 727.6C1555.9 838.211 1369.48 815.781 1265.09 790.352C1138.5 765.477 1047.29 684.781 834.825 708.733C569.242 738.674 455.013 806.758 296.996 814.961Z" fill="#051A25"/>
<path d="M-27 661.607C23 759.135 205.266 892.268 592 772.753C1099.5 615.918 1200 860.177 1428 829.864C1610.4 805.614 1688 777.586 1704 766.603" stroke="#FDF6F8" stroke-width="41"/>
<path d="M-27 661.607C23 759.135 205.266 892.268 592 772.753C1099.5 615.918 1200 860.177 1428 829.864C1610.4 805.614 1688 777.586 1704 766.603" stroke="#ECF016" stroke-width="27"/>
</g>
</svg>
