<svg width="1512" height="355" viewBox="0 0 1512 355" fill="none" xmlns="http://www.w3.org/2000/svg">
<mask id="mask0_165_1296" style="mask-type:alpha" maskUnits="userSpaceOnUse" x="0" y="0" width="1512" height="355">
<path d="M0 0L1512 0V355H0V0Z" fill="#D9D9D9"/>
</mask>
<g mask="url(#mask0_165_1296)">
<path d="M296.996 221.961C170.582 228.523 46.3263 153.877 0 115.733V-593H1555.9C1548.44 -396.813 1555.9 134.6 1555.9 134.6C1555.9 245.211 1369.48 222.781 1265.09 197.352C1138.5 172.477 1047.29 91.7805 834.825 115.733C569.242 145.674 455.013 213.758 296.996 221.961Z" fill="#051A25"/>
<path d="M-27 68.6068C23 166.135 205.266 299.268 592 179.753C1099.5 22.9176 1200 267.177 1428 236.864C1610.4 212.614 1688 184.586 1704 173.603" stroke="#FDF6F8" stroke-width="41"/>
<path d="M-27 68.6068C23 166.135 205.266 299.268 592 179.753C1099.5 22.9176 1200 267.177 1428 236.864C1610.4 212.614 1688 184.586 1704 173.603" stroke="#ECF016" stroke-width="27"/>
</g>
</svg>
