<svg width="1512" height="661" viewBox="0 0 1512 661" fill="none" xmlns="http://www.w3.org/2000/svg">
<mask id="mask0_152_1283" style="mask-type:alpha" maskUnits="userSpaceOnUse" x="0" y="0" width="1512" height="661">
<rect width="1512" height="661" fill="#D9D9D9"/>
</mask>
<g mask="url(#mask0_152_1283)">
<path d="M274.996 54.4619C148.582 46.9931 24.3263 131.951 -22 175.364V982H1533.9V153.891C1533.9 26.5 1347.48 53.5283 1243.09 82.4701C1116.5 110.781 1025.29 202.625 812.825 175.364C547.242 141.287 433.013 63.798 274.996 54.4619Z" fill="#051A25"/>
<path d="M-73 248.501C-23 137.501 159.266 -14.0231 546 122.001C1053.5 300.502 1154 22.5013 1382 57.0013C1564.4 84.6013 1642 116.501 1658 129.001" stroke="#FDF6F8" stroke-width="41"/>
<path d="M-73 248.501C-23 137.501 159.266 -14.0231 546 122.001C1053.5 300.502 1154 22.5013 1382 57.0013C1564.4 84.6013 1642 116.501 1658 129.001" stroke="#FDF6F8" stroke-width="41"/>
<path d="M-73 248.501C-23 137.501 159.266 -14.0231 546 122.001C1053.5 300.502 1154 22.5013 1382 57.0013C1564.4 84.6013 1642 116.501 1658 129.001" stroke="#ECF016" stroke-width="27"/>
</g>
</svg>
