<svg width="1512" height="192" viewBox="0 0 1512 192" fill="none" xmlns="http://www.w3.org/2000/svg">
<mask id="mask0_165_1296" style="mask-type:alpha" maskUnits="userSpaceOnUse" x="0" y="0" width="1512" height="192">
<path d="M0 0.5H1512V191.5H0V0.5Z" fill="#D9D9D9"/>
</mask>
<g mask="url(#mask0_165_1296)">
<path d="M296.996 146.961C170.582 153.523 46.3263 78.8767 0 40.7331V-668H1555.9C1548.44 -471.813 1555.9 59.5998 1555.9 59.5998C1555.9 170.211 1369.48 147.781 1265.09 122.352C1138.5 97.4773 1047.29 16.7805 834.825 40.7331C569.242 70.6738 455.013 138.758 296.996 146.961Z" fill="#051A25"/>
<path d="M-27 -6.39316C23 91.1346 205.266 224.268 592 104.753C1099.5 -52.0824 1200 192.177 1428 161.864C1610.4 137.614 1688 109.586 1704 98.6028" stroke="#FDF6F8" stroke-width="41"/>
<path d="M-27 -6.39316C23 91.1346 205.266 224.268 592 104.753C1099.5 -52.0824 1200 192.177 1428 161.864C1610.4 137.614 1688 109.586 1704 98.6028" stroke="#ECF016" stroke-width="27"/>
</g>
</svg>
