<svg xmlns="http://www.w3.org/2000/svg" width="112" height="59" viewBox="0 0 112 59" fill="none">
<path d="M22.1504 19.8435C23.0771 32.1595 22.4313 50.7556 12.4345 26.6125C11.9521 34.8142 9.96189 46.1281 5.86071 25.7699" stroke="#FDF6F8" stroke-width="7.80477" stroke-linecap="square"/>
<path d="M25.2891 5.35779C27.212 13.3322 30.3452 31.2832 27.4948 39.2916C29.3046 28.2631 33.7386 9.66738 36.9962 23.5124C40.2539 37.3573 33.3766 51.2249 29.5308 56.4281" stroke="#FDF6F8" stroke-width="7.80477"/>
<path d="M46.2783 17.9132C50.4385 18.9117 57.4618 17.9135 57.4618 24.5301M57.4618 24.5301C58.475 26.8649 57.471 29.7178 52.5558 33.0132C37.6255 43.0234 42.8565 19.2705 57.4618 24.5301ZM57.4618 24.5301C57.5231 25.7177 58.1207 29.3824 60.0209 34.5402" stroke="#FDF6F8" stroke-width="7.80477"/>
<path d="M65.4134 5.01831C69.7995 22.6955 70.9014 57.1659 40.2197 53.6305" stroke="#FDF6F8" stroke-width="7.80477" stroke-linecap="square"/>
<path d="M58.7134 12.1444H79.413" stroke="#FDF6F8" stroke-width="7.80477" stroke-linecap="square"/>
<path d="M89.9388 21.646C87.8269 25.6548 85.2994 34.5927 92.0852 38.2735" stroke="#FDF6F8" stroke-width="7.80477"/>
<path d="M106.009 19.61C99.2127 22.5704 88.468 28.9796 99.8616 30.9333C111.255 32.887 100.511 40.5829 93.7153 44.1866" stroke="#FDF6F8" stroke-width="7.80477" stroke-linecap="square"/>
<path d="M19.4368 18.592C20.3635 30.908 21.1191 50.3699 11.1223 26.2267C10.6399 34.4284 7.24935 45.0581 3.14817 24.7" stroke="#FB2A9B" stroke-width="5.09007" stroke-linecap="square"/>
<path d="M22.6606 5.6969C24.5836 13.6713 27.8864 29.5863 25.036 37.5947C26.8458 26.5662 31.2798 7.97046 34.5375 21.8154C37.7951 35.6604 31.0875 50.3764 27.2417 55.5796" stroke="#FB2A9B" stroke-width="5.09007"/>
<path d="M45.396 16.5557C49.5563 17.5541 55.0028 16.2167 55.0028 22.8332M55.0028 22.8332C56.016 25.168 55.012 28.021 50.0968 31.3164C35.1665 41.3265 40.3975 17.5736 55.0028 22.8332ZM55.0028 22.8332C55.0641 24.0208 55.6617 27.6856 57.5619 32.8433" stroke="#FB2A9B" stroke-width="5.09007"/>
<path d="M62.5324 4C66.9186 21.6772 68.4424 55.4689 37.7607 51.9335" stroke="#FB2A9B" stroke-width="5.09007" stroke-linecap="square"/>
<path d="M56.2549 10.4474H76.9545" stroke="#FB2A9B" stroke-width="5.09007" stroke-linecap="square"/>
<path d="M87.5911 20.7974C85.4791 24.8062 82.8411 32.8957 89.627 36.5766" stroke="#FB2A9B" stroke-width="5.09007"/>
<path d="M103.551 17.9131C96.7542 20.8735 86.0095 27.2827 97.4031 29.2364C108.797 31.1901 98.0529 38.886 91.2568 42.4897" stroke="#FB2A9B" stroke-width="5.09007" stroke-linecap="square"/>
</svg>