<svg xmlns="http://www.w3.org/2000/svg" width="60" height="55" viewBox="0 0 60 55" fill="none">
<path d="M22.1504 15.4858C23.0771 27.8018 22.4313 46.398 12.4345 22.2548C11.9521 30.4565 9.96189 41.7704 5.86071 21.4122" stroke="#FDF6F8" stroke-width="7.80477" stroke-linecap="square"/>
<path d="M25.2886 1C27.2115 8.97444 30.3447 26.9254 27.4943 34.9338C29.3041 23.9053 33.7381 5.30959 36.9957 19.1546C40.2534 32.9996 33.3761 46.8672 29.5303 52.0703" stroke="#FDF6F8" stroke-width="7.80477"/>
<path d="M19.4368 14.2344C20.3635 26.5504 21.1191 46.0122 11.1223 21.869C10.6399 30.0707 7.24935 40.7005 3.14817 20.3423" stroke="#FB2A9B" stroke-width="5.09007" stroke-linecap="square"/>
<path d="M22.6606 1.33923C24.5836 9.31367 27.8864 25.2286 25.036 33.237C26.8458 22.2085 31.2798 3.6128 34.5375 17.4578C37.7951 31.3028 31.0875 46.0187 27.2417 51.2219" stroke="#FB2A9B" stroke-width="5.09007"/>
<path d="M41.7365 15.6189C41.7365 21.2065 41.7365 25.3973 47.8438 26.7943C56.244 28.7157 57.505 19.8097 54.8501 14.2218C53.1317 10.6051 52.6375 48.2137 46.8851 50.0762C43.3854 51.2094 40.6901 44.9542 41.7365 38.4352" stroke="#FDF6F8" stroke-width="7.08" stroke-linecap="square"/>
<path d="M40.7863 14.6189C40.7863 20.2065 40.7863 24.3973 46.8936 25.7943C55.2938 27.7157 56.5548 18.8097 53.8999 13.2218C52.1815 9.60507 51.6873 47.2137 45.9349 49.0762C42.4352 50.2094 39.7399 43.9542 40.7863 37.4352" stroke="#FB2A9B" stroke-width="5.09" stroke-linecap="square"/>
</svg>